<?xml version="1.0" standalone="no"?>
<svg viewBox="0 0 200 200" xmlns="http://www.w3.org/2000/svg">
  <path fill="#A855F7" d="M24.8,-50.9C26.6,-41.9,18.7,-24.1,26,-14.1C33.3,-4.2,55.7,-2.1,54.5,-0.7C53.2,0.7,28.4,1.3,20.3,9.9C12.2,18.4,20.9,34.9,20.3,50.8C19.7,66.7,9.9,82,3,76.9C-3.9,71.7,-7.8,46,-8.5,30.2C-9.3,14.4,-6.9,8.5,-13.2,5.1C-19.5,1.8,-34.4,0.9,-44.8,-6C-55.2,-12.9,-61.1,-25.8,-55,-29.4C-48.8,-33,-30.6,-27.2,-19.4,-30.8C-8.3,-34.4,-4.1,-47.3,3.7,-53.6C11.5,-60,23,-59.9,24.8,-50.9Z" transform="translate(100 100)" />
</svg>
