<svg width="98" height="613" viewBox="0 0 98 613" fill="none" xmlns="http://www.w3.org/2000/svg">
<mask id="path-1-inside-1_220_97" fill="white">
<path d="M-4 13C-4 5.82028 1.8203 0 9 0H69C76.1797 0 82 5.8203 82 13V600C82 607.18 76.1797 613 69 613H9C1.8203 613 -4 607.18 -4 600V13Z"/>
</mask>
<path d="M-4 13C-4 3.05887 4.05887 -5 14 -5H69C78.9411 -5 87 3.05887 87 13H77C77 8.58172 73.4183 5 69 5H9C1.8203 5 -4 8.58172 -4 13ZM82 613H-4H82ZM-4 613V0V613ZM69 -5C78.9411 -5 87 3.05887 87 13V595C87 604.941 78.9411 613 69 613C73.4183 613 77 607.18 77 600V13C77 8.58172 73.4183 5 69 5V-5Z" fill="white" mask="url(#path-1-inside-1_220_97)"/>
<circle cx="80.5" cy="197.5" r="16.5" fill="url(#paint0_linear_220_97)" stroke="white" stroke-width="2"/>
<defs>
<linearGradient id="paint0_linear_220_97" x1="98" y1="188" x2="63" y2="207" gradientUnits="userSpaceOnUse">
<stop stop-color="#7F5AF0"/>
<stop offset="1" stop-color="#DA7DFB"/>
</linearGradient>
</defs>
</svg>
