<svg width="64" height="64" viewBox="0 0 64 64" fill="none" xmlns="http://www.w3.org/2000/svg">
<path d="M49.7778 42.3333H14.2222C12.9949 42.3333 12 42.7811 12 43.3333C12 43.8856 12.9949 44.3333 14.2222 44.3333H49.7778C51.0051 44.3333 52 43.8856 52 43.3333C52 42.7811 51.0051 42.3333 49.7778 42.3333Z" fill="#FFFFFE" stroke="#FFFFFE" stroke-width="2.66667"/>
<path d="M49.7778 29.3333H14.2222C12.9949 29.3333 12 29.7811 12 30.3333C12 30.8856 12.9949 31.3333 14.2222 31.3333H49.7778C51.0051 31.3333 52 30.8856 52 30.3333C52 29.7811 51.0051 29.3333 49.7778 29.3333Z" fill="#FFFFFE" stroke="#FFFFFE" stroke-width="2.66667"/>
<path d="M49.7778 17.3333H14.2222C12.9949 17.3333 12 17.7811 12 18.3333C12 18.8856 12.9949 19.3333 14.2222 19.3333H49.7778C51.0051 19.3333 52 18.8856 52 18.3333C52 17.7811 51.0051 17.3333 49.7778 17.3333Z" fill="#FFFFFE" stroke="#FFFFFE" stroke-width="2.66667"/>
</svg>
