<svg xmlns="http://www.w3.org/2000/svg" xmlns:xlink="http://www.w3.org/1999/xlink" data-name="Layer 1" preserveAspectRatio="xMidYMid meet" version="1.0" viewBox="0.1 -0.0 399.8 400.0" zoomAndPan="magnify" style="fill: rgb(168, 85, 247);" original_string_length="1347"><g id="__id111_st1evw220q"><path d="M399.85,299.07l.06-.2a1.09,1.09,0,0,0,0-.17,1.72,1.72,0,0,0,0-.39V2a1.72,1.72,0,0,0,0-.39.84.84,0,0,0,0-.17l-.06-.2c0-.07-.07-.13-.1-.2a1.19,1.19,0,0,0-.09-.15,1.8,1.8,0,0,0-.55-.55A.55.55,0,0,0,399,.26l-.2-.11-.2-.06-.17,0A1.72,1.72,0,0,0,398,0H101.69a1.72,1.72,0,0,0-.39,0l-.17,0-.2.06-.2.11a.55.55,0,0,0-.15.08,1.42,1.42,0,0,0-.3.25L.59,100.28a1.42,1.42,0,0,0-.25.3,1.29,1.29,0,0,0-.09.16c0,.06-.07.12-.1.19l-.06.2a1.09,1.09,0,0,0,0,.17,1.72,1.72,0,0,0,0,.39V398a1.72,1.72,0,0,0,0,.39.84.84,0,0,0,0,.17l.06.2a1.28,1.28,0,0,0,.11.2.55.55,0,0,0,.08.15,1.8,1.8,0,0,0,.55.55.55.55,0,0,0,.15.08l.2.11.2.06.17,0A1.72,1.72,0,0,0,2,400H298.31a1.72,1.72,0,0,0,.39,0l.17,0,.2-.06.2-.11a.55.55,0,0,0,.15-.08,1.42,1.42,0,0,0,.3-.25l99.69-99.69a1.42,1.42,0,0,0,.25-.3.55.55,0,0,0,.08-.15A2,2,0,0,0,399.85,299.07ZM103.69,103.69H296.31V296.31H103.69Zm196.62-1.17L396,6.83V296.31H300.31Zm-2.83-2.83H103.69V4H393.17Zm-197.79,0H6.83L99.69,6.83ZM4,103.69H99.69V297.48L4,393.17Zm98.52,196.62H296.31V396H6.83Zm197.79,0h92.86l-92.86,92.86Z" style="fill: inherit;"/></g></svg>