<?xml version="1.0" encoding="UTF-8"?>
<!DOCTYPE svg PUBLIC "-//W3C//DTD SVG 1.1//EN" "http://www.w3.org/Graphics/SVG/1.1/DTD/svg11.dtd">
<svg xmlns="http://www.w3.org/2000/svg" version="1.1" width="800px" height="787px" style="shape-rendering:geometricPrecision; text-rendering:geometricPrecision; image-rendering:optimizeQuality; fill-rule:evenodd; clip-rule:evenodd" xmlns:xlink="http://www.w3.org/1999/xlink">
<g><path style="opacity:0.928" fill="#a755f6" d="M 0.5,-0.5 C 112.833,-0.5 225.167,-0.5 337.5,-0.5C 337.987,0.473444 338.487,1.47344 339,2.5C 339.5,66.1658 339.667,129.832 339.5,193.5C 408.167,193.333 476.834,193.5 545.5,194C 546.624,194.249 547.624,194.749 548.5,195.5C 549.496,259.792 549.83,324.125 549.5,388.5C 588.835,388.333 628.168,388.5 667.5,389C 668.308,389.308 668.975,389.808 669.5,390.5C 670.496,454.792 670.83,519.125 670.5,583.5C 713.543,583.178 756.543,583.511 799.5,584.5C 799.5,651.833 799.5,719.167 799.5,786.5C 576.167,786.5 352.833,786.5 129.5,786.5C 128.507,721.875 128.174,657.208 128.5,592.5C 85.4575,592.822 42.4575,592.489 -0.5,591.5C -0.5,524.5 -0.5,457.5 -0.5,390.5C 0.473444,390.013 1.47344,389.513 2.5,389C 71.4992,388.5 140.499,388.333 209.5,388.5C 209.5,326.5 209.5,264.5 209.5,202.5C 139.459,202.827 69.4587,202.493 -0.5,201.5C -0.5,134.5 -0.5,67.5 -0.5,0.5C 0.166667,0.5 0.5,0.166667 0.5,-0.5 Z M 7.5,7.5 C 115.167,7.5 222.833,7.5 330.5,7.5C 330.5,69.5 330.5,131.5 330.5,193.5C 222.833,193.5 115.167,193.5 7.5,193.5C 7.5,131.5 7.5,69.5 7.5,7.5 Z M 217.5,202.5 C 325.167,202.5 432.833,202.5 540.5,202.5C 540.5,264.5 540.5,326.5 540.5,388.5C 432.833,388.5 325.167,388.5 217.5,388.5C 217.5,326.5 217.5,264.5 217.5,202.5 Z M 7.5,397.5 C 115.167,397.5 222.833,397.5 330.5,397.5C 330.5,459.5 330.5,521.5 330.5,583.5C 222.833,583.5 115.167,583.5 7.5,583.5C 7.5,521.5 7.5,459.5 7.5,397.5 Z M 338.5,397.5 C 446.167,397.5 553.833,397.5 661.5,397.5C 661.5,459.5 661.5,521.5 661.5,583.5C 553.833,583.5 446.167,583.5 338.5,583.5C 338.5,521.5 338.5,459.5 338.5,397.5 Z M 137.5,592.5 C 245.167,592.5 352.833,592.5 460.5,592.5C 460.5,654.5 460.5,716.5 460.5,778.5C 352.833,778.5 245.167,778.5 137.5,778.5C 137.5,716.5 137.5,654.5 137.5,592.5 Z M 468.5,592.5 C 576.167,592.5 683.833,592.5 791.5,592.5C 791.5,654.5 791.5,716.5 791.5,778.5C 683.833,778.5 576.167,778.5 468.5,778.5C 468.5,716.5 468.5,654.5 468.5,592.5 Z"/></g>
</svg>
