<svg width="24" height="24" xmlns="http://www.w3.org/2000/svg"><g fill="none" fill-rule="evenodd"><path d="M12 24c6.627 0 12-5.373 12-12S18.627 0 12 0 0 5.373 0 12s5.373 12 12 12" fill="#00ACED"/><path d="M18.366 8.398a4.986 4.986 0 0 1-.876.295 2.73 2.73 0 0 0 .721-1.15c.041-.125-.096-.232-.209-.167a5.019 5.019 0 0 1-1.34.554.351.351 0 0 1-.317-.079 2.743 2.743 0 0 0-1.813-.683 2.93 2.93 0 0 0-.868.133 2.652 2.652 0 0 0-1.788 1.912 2.929 2.929 0 0 0-.066 1.01.097.097 0 0 1-.024.075.1.1 0 0 1-.076.036h-.01a7.188 7.188 0 0 1-4.937-2.638.142.142 0 0 0-.234.018 2.737 2.737 0 0 0 .445 3.33 2.454 2.454 0 0 1-.625-.242.143.143 0 0 0-.212.123 2.745 2.745 0 0 0 1.6 2.527h-.059c-.153 0-.308-.014-.46-.043a.144.144 0 0 0-.165.183 2.746 2.746 0 0 0 2.17 1.867 5.046 5.046 0 0 1-2.832.861h-.317a.21.21 0 0 0-.205.157.217.217 0 0 0 .104.24 7.525 7.525 0 0 0 3.778 1.02c1.161 0 2.248-.231 3.228-.685a7.13 7.13 0 0 0 2.363-1.77 7.753 7.753 0 0 0 1.446-2.424 7.635 7.635 0 0 0 .492-2.65v-.042a.47.47 0 0 1 .174-.364 5.434 5.434 0 0 0 1.09-1.194c.08-.12-.046-.27-.178-.21" fill="#FFF"/></g></svg>