<!DOCTYPE svg PUBLIC "-//W3C//DTD SVG 1.1//EN" "http://www.w3.org/Graphics/SVG/1.1/DTD/svg11.dtd">
<!-- Uploaded to: SVG Repo, www.svgrepo.com, Transformed by: SVG Repo Mixer Tools -->
<svg width="800px" height="800px" viewBox="0 0 32 32" enable-background="new 0 0 32 32" version="1.1" xml:space="preserve" xmlns="http://www.w3.org/2000/svg" xmlns:xlink="http://www.w3.org/1999/xlink" fill="#ffffff" stroke="#ffffff">
<g id="SVGRepo_bgCarrier" stroke-width="0"/>
<g id="SVGRepo_tracerCarrier" stroke-linecap="round" stroke-linejoin="round"/>
<g id="SVGRepo_iconCarrier"> <g id="Home"/> <g id="Print"/> <g id="Mail"/> <g id="Camera"/> <g id="Video"/> <g id="Film"/> <g id="Message"/> <g id="Telephone"/> <g id="User"/> <g id="File"/> <g id="Folder"/> <g id="Map"/> <g id="Download"/> <g id="Upload"/> <g id="Video_Recorder"/> <g id="Schedule"/> <g id="Cart"/> <g id="Setting"/> <g id="Search"/> <g id="Pencils"/> <g id="Group"/> <g id="Record"/> <g id="Headphone"/> <g id="Music_Player"/> <g id="Sound_On"/> <g id="Sound_Off"/> <g id="Lock"/> <g id="Lock_open"/> <g id="Love"/> <g id="Favorite"> <path d="M30.9,10.6C30.8,10.2,30.4,10,30,10h0h-9l-4.1-8.4C16.7,1.2,16.4,1,16,1v0c0,0,0,0,0,0 c-0.4,0-0.7,0.2-0.9,0.6L11,10H2c-0.4,0-0.8,0.2-0.9,0.6c-0.2,0.4-0.1,0.8,0.2,1.1l6.6,7.6L5,29.7c-0.1,0.4,0,0.8,0.3,1 s0.7,0.3,1.1,0.1l9.6-4.6l9.6,4.6C25.7,31,25.8,31,26,31h0h0h0c0.5,0,1-0.4,1-1c0-0.2,0-0.3-0.1-0.5l-2.8-10.3l6.6-7.6 C31,11.4,31.1,10.9,30.9,10.6z" fill="#ffbb00"/> </g> <g id="Film_1_"/> <g id="Music"/> <g id="Puzzle"/> <g id="Turn_Off"/> <g id="Book"/> <g id="Save"/> <g id="Reload"/> <g id="Trash"/> <g id="Tag"/> <g id="Link"/> <g id="Like"/> <g id="Bad"/> <g id="Gallery"/> <g id="Add"/> <g id="Close"/> <g id="Forward"/> <g id="Back"/> <g id="Buy"/> <g id="Mac"/> <g id="Laptop"/> </g>
</svg>