<svg xmlns="http://www.w3.org/2000/svg" height="20" viewBox="0 -960 960 960" width="20"><path d="M231.448-171.271q-25.046 0-42.612-17.915-17.565-17.916-17.565-42.262v-497.104q0-24.346 17.565-42.262 17.566-17.915 42.612-17.915h497.104q25.046 0 42.612 17.915 17.565 17.916 17.565 42.262v497.104q0 24.346-17.565 42.262-17.566 17.915-42.612 17.915H231.448Zm.091-47.96h496.922q4.615 0 8.462-3.846 3.846-3.847 3.846-8.462v-496.922q0-4.615-3.846-8.462-3.847-3.846-8.462-3.846H231.539q-4.615 0-8.462 3.846-3.846 3.847-3.846 8.462v496.922q0 4.615 3.846 8.462 3.847 3.846 8.462 3.846Zm68.925-81.193h362.957L541.922-462.153l-98.691 127.73-60.384-75.076-82.383 109.075Zm-81.233 81.193v-521.538 521.538Z"/></svg>